<svg width="6" height="12" viewBox="0 0 6 12" fill="none" xmlns="http://www.w3.org/2000/svg">
<path d="M0.146447 10.9601C-0.0488155 10.7648 -0.0488155 10.4482 0.146447 10.253L5.09619 5.30323C5.29146 5.10797 5.60804 5.10797 5.8033 5.30323C5.99856 5.49849 5.99856 5.81507 5.8033 6.01034L0.853553 10.9601C0.658291 11.1553 0.341709 11.1553 0.146447 10.9601Z" fill="white"/>
<path d="M5.8033 6.01034C5.60804 6.2056 5.29146 6.20559 5.0962 6.01033L0.146452 1.06058C-0.0488098 0.865323 -0.0488098 0.54874 0.146452 0.353478C0.341714 0.158216 0.658297 0.158216 0.853559 0.353478L5.8033 5.30323C5.99856 5.49849 5.99856 5.81507 5.8033 6.01034Z" fill="white"/>
</svg>
